<?xml version="1.0" encoding="utf-8"?>
<!-- Generator: Adobe Illustrator 24.3.0, SVG Export Plug-In . SVG Version: 6.00 Build 0)  -->
<svg version="1.1" id="Layer_1" xmlns="http://www.w3.org/2000/svg" xmlns:xlink="http://www.w3.org/1999/xlink" x="0px" y="0px"
	 viewBox="0 0 864 446.75" style="enable-background:new 0 0 864 446.75;" xml:space="preserve">
<style type="text/css">
	.st0{fill:#80BC00;}
	.st1{fill:#B2292E;}
	.st2{fill:#B1292D;}
	.st3{fill:#72B444;}
	.st4{fill:none;stroke:#72B444;stroke-width:1.143;stroke-miterlimit:10;}
	.st5{fill:#FFFFFF;}
</style>
<g>
	<g>
		<path class="st5" d="M826.57,196.22c-14.03,0-25.45-11.42-25.45-25.45c0-14.03,11.42-25.45,25.45-25.45
			c14.03,0,25.45,11.42,25.45,25.45C852.02,184.81,840.61,196.22,826.57,196.22z M826.57,148.12c-12.49,0-22.66,10.16-22.66,22.66
			c0,12.49,10.16,22.66,22.66,22.66s22.66-10.16,22.66-22.66C849.23,158.28,839.07,148.12,826.57,148.12z"/>
	</g>
	<g>
		<path class="st5" d="M816.65,155.26h6.18c3.45,0,5.78,0.14,7,0.42c1.84,0.42,3.34,1.33,4.49,2.71c1.15,1.39,1.73,3.09,1.73,5.12
			c0,1.69-0.4,3.18-1.19,4.46s-1.93,2.25-3.41,2.9c-1.48,0.66-3.52,0.99-6.12,1l11.16,14.41h-3.84l-11.16-14.41h-1.75v14.41h-3.1
			V155.26z M819.75,158.3v10.55l5.35,0.04c2.07,0,3.6-0.2,4.6-0.59c0.99-0.39,1.77-1.02,2.32-1.89c0.56-0.87,0.84-1.83,0.84-2.9
			c0-1.04-0.28-1.99-0.85-2.84c-0.56-0.85-1.3-1.46-2.22-1.83c-0.92-0.37-2.44-0.55-4.56-0.55H819.75z"/>
	</g>
</g>
<path class="st0" d="M447.42,231.31l-78.34,90.52c-26.12,33.97-19.15,10.39,20.93-70.75l27.76-62
	c-0.52-19.26-11.29-21.03-32.33-5.32l-18.4,40.9c-1.98,1.41-3.78,3.61-5.41,6.65l-78.35,90.52c-26.11,33.97-19.14,10.39,20.92-70.75
	c28.08-54.76,49.94-99.64,65.58-134.66l18.56,13.48l-52.27,107.98l74.42-91.88l35.84,26.04l-13.7-42.13l35.84-26.04h-44.3
	l-13.69-42.12l-13.69,42.12H375.3c17.51-40.44,25.44-65.67,23.78-75.65c-3.17-19.02-15.27-20.67-36.32-4.95L243.35,308.89
	c-6.85,14.46-10.01,26.63-9.5,36.51c-4.82,36.01,10.51,43.49,46.01,22.43c18.87-21.84,35.19-41.28,49.03-58.37
	c-6.66,14.2-9.74,26.19-9.25,35.94c-4.81,36.01,10.52,43.49,46.02,22.43c62.88-72.76,97.75-119.16,104.59-139.2
	C460.61,220.03,453,220.92,447.42,231.31"/>
<path class="st5" d="M46.19,389.07h8.98c5.15,0,8.62,0.23,10.41,0.67c2.58,0.63,4.69,1.94,6.32,3.91c1.64,1.97,2.46,4.44,2.46,7.43
	c0,3-0.8,5.48-2.39,7.43c-1.6,1.96-3.79,3.26-6.59,3.94c-2.04,0.49-5.86,0.74-11.46,0.74H50.7v20.96h-4.51V389.07z M50.7,393.48
	v15.3l7.63,0.09c3.09,0,5.35-0.28,6.78-0.85c1.43-0.56,2.55-1.47,3.37-2.72c0.82-1.26,1.23-2.65,1.23-4.21
	c0-1.5-0.41-2.89-1.23-4.14c-0.82-1.26-1.89-2.14-3.22-2.67c-1.34-0.53-3.54-0.8-6.58-0.8H50.7z"/>
<polygon class="st5" points="186.89,389.07 191.39,389.07 191.39,407.98 214.35,407.98 214.35,389.07 218.86,389.07 218.86,434.16 
	214.35,434.16 214.35,412.4 191.39,412.4 191.39,434.16 186.89,434.16 "/>
<path class="st5" d="M351.83,389.07l21.03,45.09H368l-7.09-14.84h-19.43l-7.02,14.84h-5.03l21.3-45.09H351.83z M351.27,398.65
	l-7.73,16.33h15.42L351.27,398.65z"/>
<path class="st5" d="M481.06,389.07h8.98c5.01,0,8.4,0.21,10.17,0.61c2.68,0.62,4.86,1.93,6.53,3.94c1.67,2.01,2.51,4.5,2.51,7.44
	c0,2.47-0.57,4.62-1.73,6.48c-1.16,1.86-2.8,3.27-4.95,4.21c-2.14,0.96-5.11,1.45-8.88,1.46l16.21,20.94h-5.58l-16.21-20.94h-2.55
	v20.94h-4.5V389.07z M485.56,393.48v15.33l7.77,0.06c3.02,0,5.23-0.29,6.68-0.86c1.45-0.57,2.57-1.49,3.38-2.75
	c0.81-1.26,1.22-2.66,1.22-4.21c0-1.51-0.41-2.89-1.23-4.12c-0.83-1.24-1.9-2.12-3.22-2.65c-1.34-0.53-3.55-0.8-6.63-0.8H485.56z"/>
<polygon class="st5" points="617.82,434.16 624.27,389.07 625.01,389.07 643.34,426.07 661.49,389.07 662.22,389.07 668.7,434.16 
	664.28,434.16 659.83,401.91 643.89,434.16 642.74,434.16 626.6,401.67 622.17,434.16 "/>
<path class="st5" d="M792.82,389.07l21.03,45.09h-4.87l-7.1-14.84h-19.42l-7.02,14.84h-5.02l21.3-45.09H792.82z M792.25,398.65
	l-7.73,16.33h15.42L792.25,398.65z"/>
<rect x="45.04" y="369.9" class="st5" width="761.63" height="3.13"/>
<polygon class="st5" points="11.98,163.61 11.98,144.29 120.1,144.29 120.1,163.61 76.1,163.61 76.1,341.62 55.97,341.62 
	55.97,163.61 "/>
<path class="st5" d="M257.88,195.67v145.95h-18.51v-25.09c-7.86,9.57-16.71,16.77-26.5,21.6c-9.79,4.83-20.5,7.25-32.12,7.25
	c-20.66,0-38.3-7.49-52.93-22.48c-14.63-14.98-21.92-33.19-21.92-54.66c0-21.02,7.38-39,22.13-53.93
	c14.76-14.93,32.51-22.4,53.25-22.4c11.99,0,22.82,2.54,32.52,7.64c9.71,5.09,18.23,12.74,25.56,22.94v-26.83H257.88z
	 M182.82,210.02c-10.44,0-20.08,2.57-28.93,7.71c-8.86,5.13-15.89,12.35-21.11,21.64c-5.23,9.3-7.83,19.12-7.83,29.48
	c0,10.27,2.63,20.1,7.9,29.48c5.28,9.38,12.35,16.68,21.25,21.9c8.88,5.23,18.42,7.84,28.6,7.84c10.27,0,20.01-2.59,29.21-7.77
	c9.2-5.17,16.28-12.19,21.24-21.03c4.95-8.84,7.44-18.8,7.44-29.88c0-16.88-5.56-30.99-16.69-42.34
	C212.77,215.7,199.08,210.02,182.82,210.02"/>
<polygon class="st5" points="432.05,141.48 450.83,141.48 450.83,195.67 480.61,195.67 480.61,211.9 450.83,211.9 450.83,341.62 
	432.05,341.62 432.05,211.9 406.43,211.9 406.43,195.67 432.05,195.67 "/>
<path class="st5" d="M499.39,139.33h18.78v82.5c7.6-10.02,15.96-17.5,25.08-22.47c9.12-4.96,19.01-7.44,29.65-7.44
	c10.91,0,20.59,2.77,29.04,8.32c8.45,5.54,14.69,12.99,18.72,22.33c4.02,9.36,6.04,23.99,6.04,43.94v75.12h-18.78V272
	c0-16.81-0.67-28.03-2.01-33.67c-2.32-9.65-6.56-16.92-12.68-21.8c-6.12-4.87-14.14-7.31-24.07-7.31
	c-11.35,0-21.53,3.76-30.52,11.27c-8.98,7.51-14.91,16.81-17.77,27.9c-1.78,7.16-2.68,20.4-2.68,39.72v53.52h-18.78V139.33z"/>
<path class="st5" d="M798.28,195.67v145.95h-18.51v-25.09c-7.87,9.57-16.71,16.77-26.5,21.6c-9.79,4.83-20.5,7.25-32.13,7.25
	c-20.66,0-38.31-7.49-52.92-22.48c-14.63-14.98-21.92-33.19-21.92-54.66c0-21.02,7.37-39,22.13-53.93
	c14.76-14.93,32.51-22.4,53.26-22.4c11.98,0,22.82,2.54,32.52,7.64c9.71,5.09,18.23,12.74,25.56,22.94v-26.83H798.28z
	 M723.22,210.02c-10.45,0-20.09,2.57-28.93,7.71c-8.85,5.13-15.88,12.35-21.11,21.64c-5.22,9.3-7.83,19.12-7.83,29.48
	c0,10.27,2.64,20.1,7.9,29.48c5.26,9.38,12.35,16.68,21.23,21.9c8.89,5.23,18.42,7.84,28.61,7.84c10.27,0,20.02-2.59,29.21-7.77
	c9.2-5.17,16.28-12.19,21.23-21.03c4.96-8.84,7.44-18.8,7.44-29.88c0-16.88-5.56-30.99-16.68-42.34
	C753.17,215.7,739.48,210.02,723.22,210.02"/>
</svg>
