<?xml version="1.0" encoding="utf-8"?>
<!-- Generator: Adobe Illustrator 24.3.0, SVG Export Plug-In . SVG Version: 6.00 Build 0)  -->
<svg version="1.1" id="Layer_1" xmlns="http://www.w3.org/2000/svg" xmlns:xlink="http://www.w3.org/1999/xlink" x="0px" y="0px"
	 viewBox="0 0 249.68 371" style="enable-background:new 0 0 249.68 371;" xml:space="preserve">
<style type="text/css">
	.st0{fill:#80BC00;}
	.st1{fill:#B2292E;}
	.st2{fill:#B1292D;}
	.st3{fill:#72B444;}
	.st4{fill:none;stroke:#72B444;stroke-width:1.143;stroke-miterlimit:10;}
</style>
<path class="st0" d="M220.65,220.77l-78.34,90.52c-26.12,33.97-19.15,10.39,20.93-70.75l27.76-62
	c-0.52-19.25-11.29-21.03-32.33-5.32l-18.4,40.9c-1.98,1.41-3.78,3.61-5.41,6.65l-78.35,90.52c-26.11,33.97-19.14,10.39,20.92-70.75
	c28.08-54.76,49.94-99.64,65.58-134.66l18.56,13.48l-52.27,107.98l74.42-91.88l35.84,26.04l-13.7-42.13l35.84-26.04h-44.3
	L183.7,51.2l-13.69,42.12h-21.49c17.51-40.44,25.44-65.67,23.78-75.65c-3.17-19.02-15.27-20.67-36.32-4.95L16.57,298.35
	c-6.85,14.46-10.01,26.63-9.5,36.51c-4.82,36.01,10.51,43.49,46.01,22.43c18.87-21.84,35.19-41.28,49.03-58.37
	c-6.66,14.2-9.74,26.19-9.25,35.94c-4.81,36.01,10.52,43.49,46.02,22.43c62.88-72.76,97.75-119.16,104.59-139.2
	C233.84,209.49,226.23,210.38,220.65,220.77"/>
</svg>
